<svg width="513" height="513" viewBox="0 0 513 513" fill="none" xmlns="http://www.w3.org/2000/svg">
<rect width="513" height="513" rx="256.5" fill="#00B2E2"/>
<mask id="mask0_4_1220" style="mask-type:alpha" maskUnits="userSpaceOnUse" x="0" y="0" width="513" height="513">
<rect width="513" height="513" rx="256.5" fill="#00B2E2"/>
</mask>
<g mask="url(#mask0_4_1220)">
<rect width="298.085" height="452.796" transform="translate(107 76.8098)" fill="#00B2E2"/>
<path d="M331.788 289.772C331.881 240.379 342.94 191.623 364.168 147.024H331.788V135.408H305.839V119.6H263.975V105.071H281.346V89.814H263.975V75.8713H248.914V89.814H233.053V105.071H248.914V119.6H207.05V135.408H181.101V147.024H148.704C169.945 191.619 181.011 240.377 181.101 289.772C181.101 366.874 154.068 438.968 107 500.902L118.936 529.853H393.953L405.889 500.902C358.821 439.039 331.788 366.874 331.788 289.772ZM256.445 529.871H118.936C177.087 460.903 210.958 378.419 210.958 289.772C210.886 241.168 200.719 193.109 181.101 148.64H210.958V174.021H237.919V148.64H275.059V174.021H302.02V148.64H331.877C312.251 193.106 302.084 241.167 302.02 289.772C302.02 378.419 335.874 460.903 394.042 529.871H256.445Z" fill="white"/>
<path opacity="0.3" d="M256.445 148.64V529.871H393.954C335.785 460.904 301.932 378.419 301.932 289.772C301.995 241.167 312.162 193.106 331.789 148.64H301.932V174.021H275.059V148.64H256.445Z" fill="white"/>
</g>
</svg>
